<?xml version="1.0" standalone="no"?>
<!DOCTYPE svg PUBLIC "-//W3C//DTD SVG 20010904//EN"
 "http://www.w3.org/TR/2001/REC-SVG-20010904/DTD/svg10.dtd">
<svg version="1.0" xmlns="http://www.w3.org/2000/svg"
 width="500.000000pt" height="500.000000pt" viewBox="0 0 500.000000 500.000000"
 preserveAspectRatio="xMidYMid meet">
<metadata>
Created by potrace 1.11, written by Peter Selinger 2001-2013
</metadata>
<g transform="translate(0.000000,500.000000) scale(0.100000,-0.100000)"
fill="#000000" stroke="none">
<path d="M2133 4210 c-32 -13 -55 -54 -55 -97 0 -29 7 -43 31 -65 80 -72 205
17 157 111 -29 54 -77 73 -133 51z m80 -29 c63 -24 30 -140 -39 -141 -29 0
-74 47 -74 77 0 29 41 73 69 73 11 0 31 -4 44 -9z"/>
<path d="M2912 4204 c-32 -22 -55 -71 -47 -103 19 -78 106 -106 166 -53 87 78
-24 223 -119 156z"/>
<path d="M1315 3856 c-128 -59 -155 -222 -52 -313 46 -40 98 -57 151 -49 167
27 217 242 78 340 -49 35 -129 45 -177 22z"/>
<path d="M2091 3848 c-95 -47 -131 -171 -76 -264 33 -56 116 -99 175 -91 63 8
112 39 144 90 99 159 -74 349 -243 265z m16 -133 c-34 -68 -65 -121 -68 -117
-4 4 -12 24 -19 45 -10 31 -9 46 5 87 21 63 69 103 132 109 7 0 -15 -55 -50
-124z"/>
<path d="M2879 3847 c-75 -40 -120 -131 -100 -204 31 -114 144 -178 244 -139
85 34 127 91 127 177 0 142 -146 232 -271 166z"/>
<path d="M3672 3849 c-142 -72 -142 -269 1 -338 53 -26 99 -26 152 -2 103 48
143 156 95 257 -44 90 -159 129 -248 83z"/>
<path d="M2050 3247 c-91 -26 -173 -96 -212 -182 -34 -76 -32 -190 5 -267 35
-71 101 -130 176 -159 74 -28 184 -23 251 10 186 94 238 328 110 490 -72 91
-220 139 -330 108z m203 -37 c131 -62 198 -198 168 -339 -49 -227 -338 -311
-503 -146 -61 61 -82 116 -82 215 -1 76 3 91 29 139 33 59 89 109 150 134 60
24 184 22 238 -3z"/>
<path d="M2923 3246 c-155 -51 -241 -173 -231 -330 8 -117 72 -213 178 -267
67 -33 177 -38 251 -10 75 29 141 88 176 159 37 76 39 190 5 268 -29 63 -102
136 -164 164 -61 27 -160 34 -215 16z m-32 -94 c7 -7 89 -465 89 -494 0 -32
-113 9 -175 63 -60 53 -88 120 -89 214 -1 68 3 88 27 137 35 72 71 102 112 94
16 -4 32 -10 36 -14z"/>
<path d="M1305 3064 c-77 -42 -109 -101 -103 -186 7 -99 83 -171 182 -171 58
0 99 18 137 60 40 43 49 66 49 130 0 68 -20 106 -75 149 -47 35 -142 44 -190
18z m175 -34 c87 -62 95 -185 17 -258 -102 -96 -277 -17 -277 124 0 67 59 144
121 157 42 9 110 -2 139 -23z"/>
<path d="M3675 3064 c-72 -37 -108 -93 -108 -169 0 -106 82 -188 188 -188 77
0 131 36 169 110 32 63 12 168 -40 214 -56 49 -150 64 -209 33z"/>
<path d="M879 2961 c-49 -49 -35 -126 28 -156 85 -41 172 50 129 133 -32 61
-108 72 -157 23z"/>
<path d="M4137 2979 c-22 -13 -47 -61 -47 -93 0 -33 44 -83 80 -91 38 -8 94
18 109 51 32 70 -13 144 -86 144 -21 0 -46 -5 -56 -11z"/>
<path d="M2011 2359 c-66 -26 -137 -95 -171 -164 -19 -40 -24 -67 -24 -130 -1
-101 26 -165 95 -230 70 -66 127 -89 219 -89 126 -1 234 63 287 172 24 50 28
69 28 147 0 75 -4 98 -24 135 -32 62 -86 117 -146 148 -71 36 -188 41 -264 11z
m256 -26 c58 -29 110 -81 140 -142 25 -51 30 -180 9 -235 -80 -208 -344 -262
-501 -102 -66 66 -90 138 -82 236 9 113 69 199 171 246 76 35 187 34 263 -3z"/>
<path d="M2920 2371 c-136 -44 -220 -152 -228 -291 -8 -138 53 -242 176 -302
58 -29 76 -33 142 -32 92 0 149 23 219 89 69 64 95 128 96 230 0 68 -4 89 -28
137 -31 62 -84 116 -149 149 -46 24 -180 36 -228 20z m128 -91 l13 -75 115
-60 c63 -33 120 -65 125 -71 12 -14 -7 -105 -32 -155 -51 -101 -206 -176 -310
-149 -160 41 -237 125 -247 268 -5 78 10 142 49 198 47 69 158 125 239 121
l35 -2 13 -75z"/>
<path d="M1331 2285 c-109 -34 -164 -162 -112 -263 69 -136 266 -136 337 0 17
32 18 131 3 161 -45 87 -139 130 -228 102z m184 -69 c69 -74 49 -201 -40 -256
-46 -29 -131 -27 -176 3 -49 33 -79 82 -79 132 l0 42 123 55 c67 31 126 57
131 57 5 1 23 -14 41 -33z"/>
<path d="M3735 2295 c-5 -2 -22 -6 -37 -9 -35 -8 -94 -59 -115 -100 -22 -42
-20 -126 3 -167 10 -17 36 -46 57 -62 68 -56 191 -46 248 19 60 69 66 175 13
241 -40 50 -130 92 -169 78z"/>
<path d="M906 2195 c-41 -22 -55 -44 -56 -88 0 -53 43 -97 95 -97 47 0 71 14
91 52 43 83 -48 177 -130 133z"/>
<path d="M4154 2200 c-12 -4 -31 -21 -43 -36 -49 -63 -3 -154 79 -154 102 0
138 131 50 183 -31 19 -54 20 -86 7z"/>
<path d="M1315 1491 c-74 -34 -115 -95 -115 -172 0 -56 20 -98 68 -141 66 -60
154 -63 230 -8 49 35 72 83 72 149 0 89 -45 151 -129 179 -47 16 -79 15 -126
-7z m144 -15 c110 -58 131 -202 40 -280 -68 -58 -164 -57 -231 3 -27 24 -32
36 -36 87 -2 33 1 79 8 102 21 81 140 128 219 88z"/>
<path d="M2094 1485 c-66 -33 -97 -80 -102 -156 -8 -113 69 -194 184 -194 49
0 68 5 102 28 103 68 113 212 21 295 -63 56 -130 65 -205 27z m160 -14 c16 -9
43 -33 59 -54 41 -50 44 -133 7 -189 -33 -49 -86 -78 -144 -78 -80 0 -143 50
-167 130 -21 71 24 164 95 195 43 19 115 17 150 -4z"/>
<path d="M2905 1497 c-50 -20 -80 -45 -104 -88 -89 -157 82 -337 244 -259 140
68 142 265 3 334 -56 28 -95 31 -143 13z m131 -27 c15 -6 24 -13 21 -16 -6 -6
-192 -44 -216 -44 -18 0 25 49 54 60 29 12 109 12 141 0z"/>
<path d="M3692 1499 c-50 -15 -107 -77 -121 -133 -31 -125 72 -246 199 -234
149 15 224 195 127 305 -55 63 -127 84 -205 62z"/>
<path d="M2109 951 c-78 -78 8 -205 107 -158 69 33 80 113 22 162 -42 35 -91
34 -129 -4z m129 -17 c30 -35 28 -74 -6 -107 -38 -36 -75 -35 -114 3 -25 26
-29 36 -24 62 15 77 92 100 144 42z"/>
<path d="M2902 955 c-58 -49 -47 -129 22 -162 99 -47 185 80 107 158 -38 38
-87 39 -129 4z m112 -16 c36 -28 36 -81 0 -114 -33 -31 -61 -31 -96 -2 -43 35
-46 71 -10 107 36 35 69 38 106 9z"/>
</g>
</svg>
